<svg width="512" height="512" xmlns="http://www.w3.org/2000/svg">

 <g>
  <title>background</title>
  <rect fill="none" id="canvas_background" height="402" width="582" y="-1" x="-1"/>
 </g>
 <g>
  <title>Layer 1</title>
  <path fill="#ff0000" id="svg_1" d="m95.468,416.532c41.078,41.077 97.838,66.489 160.532,66.489s119.448,-25.412 160.532,-66.489c41.078,-41.078 66.489,-97.839 66.489,-160.532s-25.411,-119.454 -66.489,-160.532c-41.084,-41.08 -97.839,-66.492 -160.532,-66.492s-119.454,25.412 -160.532,66.492c-41.083,41.078 -66.495,97.839 -66.495,160.532s25.412,119.454 66.495,160.532m160.532,-416.532c141.382,0 256,114.615 256,256c0,141.382 -114.618,256 -256,256c-141.388,0 -256,-114.618 -256,-256c0,-141.385 114.612,-256 256,-256z" class="st0"/>
  <path fill="#ff0022" clip-rule="evenodd" fill-rule="evenodd" id="svg_2" d="m112.088,301.73l0,-91.461c0,-6.092 4.987,-11.076 11.076,-11.076l76.027,0l0,-76.028c0,-6.091 4.987,-11.076 11.076,-11.076l91.465,0c6.095,0 11.076,4.984 11.076,11.076l0,76.028l76.027,0c6.095,0 11.076,4.984 11.076,11.076l0,91.461c0,6.096 -4.981,11.082 -11.076,11.082l-76.027,0l0,76.021c0,6.09 -4.981,11.076 -11.076,11.076l-91.465,0c-6.089,0 -11.076,-4.986 -11.076,-11.076l0,-76.021l-76.027,0c-6.089,0.001 -11.076,-4.986 -11.076,-11.082" class="st1"/>
 </g>
</svg>